<?xml version="1.0" encoding="UTF-8" standalone="no"?>
<!DOCTYPE svg PUBLIC "-//W3C//DTD SVG 1.1//EN"
 "http://www.w3.org/Graphics/SVG/1.1/DTD/svg11.dtd">
<!-- Generated by graphviz version 14.1.5 (0)
 -->
<!-- Pages: 1 -->
<svg width="809pt" height="370pt"
 viewBox="0.00 0.00 809.00 370.00" xmlns="http://www.w3.org/2000/svg" xmlns:xlink="http://www.w3.org/1999/xlink">
<g id="graph0" class="graph" transform="scale(1 1) rotate(0) translate(4 365.75)">
<polygon fill="white" stroke="none" points="-4,4 -4,-365.75 804.5,-365.75 804.5,4 -4,4"/>
<!-- 139858107134512 -->
<g id="node1" class="node">
<title>139858107134512</title>
<polygon fill="none" stroke="black" points="2.25,-285.5 2.25,-361.25 108.25,-361.25 108.25,-285.5 2.25,-285.5"/>
<text xml:space="preserve" text-anchor="middle" x="55.25" y="-343.95" font-family="Times,serif" font-size="14.00">f</text>
<polyline fill="none" stroke="black" points="2.25,-336 108.25,-336"/>
<text xml:space="preserve" text-anchor="middle" x="55.25" y="-318.7" font-family="Times,serif" font-size="14.00">data &#45;2.0000</text>
<polyline fill="none" stroke="black" points="2.25,-310.75 108.25,-310.75"/>
<text xml:space="preserve" text-anchor="middle" x="55.25" y="-293.45" font-family="Times,serif" font-size="14.00">grad 3.0000</text>
</g>
<!-- 139858106980000+ -->
<g id="node4" class="node">
<title>139858106980000+</title>
<ellipse fill="none" stroke="black" cx="173.5" cy="-228.38" rx="27" ry="18"/>
<text xml:space="preserve" text-anchor="middle" x="173.5" y="-223.7" font-family="Times,serif" font-size="14.00">+</text>
</g>
<!-- 139858107134512&#45;&gt;139858106980000+ -->
<g id="edge8" class="edge">
<title>139858107134512&#45;&gt;139858106980000+</title>
<path fill="none" stroke="black" d="M103.2,-285.01C118.11,-272.83 134.03,-259.81 146.86,-249.33"/>
<polygon fill="black" stroke="black" points="148.88,-252.19 154.41,-243.16 144.45,-246.77 148.88,-252.19"/>
</g>
<!-- 139858106743888 -->
<g id="node2" class="node">
<title>139858106743888</title>
<polygon fill="none" stroke="black" points="2.25,-95.5 2.25,-171.25 108.25,-171.25 108.25,-95.5 2.25,-95.5"/>
<text xml:space="preserve" text-anchor="middle" x="55.25" y="-153.95" font-family="Times,serif" font-size="14.00">b</text>
<polyline fill="none" stroke="black" points="2.25,-146 108.25,-146"/>
<text xml:space="preserve" text-anchor="middle" x="55.25" y="-128.7" font-family="Times,serif" font-size="14.00">data &#45;3.0000</text>
<polyline fill="none" stroke="black" points="2.25,-120.75 108.25,-120.75"/>
<text xml:space="preserve" text-anchor="middle" x="55.25" y="-103.45" font-family="Times,serif" font-size="14.00">grad 6.0000</text>
</g>
<!-- 139858106774256* -->
<g id="node6" class="node">
<title>139858106774256*</title>
<ellipse fill="none" stroke="black" cx="173.5" cy="-133.38" rx="27" ry="18"/>
<text xml:space="preserve" text-anchor="middle" x="173.5" y="-128.7" font-family="Times,serif" font-size="14.00">*</text>
</g>
<!-- 139858106743888&#45;&gt;139858106774256* -->
<g id="edge5" class="edge">
<title>139858106743888&#45;&gt;139858106774256*</title>
<path fill="none" stroke="black" d="M108.59,-133.38C117.44,-133.38 126.47,-133.38 134.85,-133.38"/>
<polygon fill="black" stroke="black" points="134.66,-136.88 144.66,-133.38 134.66,-129.88 134.66,-136.88"/>
</g>
<!-- 139858106980000 -->
<g id="node3" class="node">
<title>139858106980000</title>
<polygon fill="none" stroke="black" points="238,-190.5 238,-266.25 341,-266.25 341,-190.5 238,-190.5"/>
<text xml:space="preserve" text-anchor="middle" x="289.5" y="-248.95" font-family="Times,serif" font-size="14.00">d</text>
<polyline fill="none" stroke="black" points="238,-241 341,-241"/>
<text xml:space="preserve" text-anchor="middle" x="289.5" y="-223.7" font-family="Times,serif" font-size="14.00">data 8.0000</text>
<polyline fill="none" stroke="black" points="238,-215.75 341,-215.75"/>
<text xml:space="preserve" text-anchor="middle" x="289.5" y="-198.45" font-family="Times,serif" font-size="14.00">grad 3.0000</text>
</g>
<!-- 139858106985440+ -->
<g id="node13" class="node">
<title>139858106985440+</title>
<ellipse fill="none" stroke="black" cx="405.5" cy="-180.38" rx="27" ry="18"/>
<text xml:space="preserve" text-anchor="middle" x="405.5" y="-175.7" font-family="Times,serif" font-size="14.00">+</text>
</g>
<!-- 139858106980000&#45;&gt;139858106985440+ -->
<g id="edge9" class="edge">
<title>139858106980000&#45;&gt;139858106985440+</title>
<path fill="none" stroke="black" d="M341.5,-206.9C351.72,-202.6 362.21,-198.18 371.62,-194.22"/>
<polygon fill="black" stroke="black" points="372.84,-197.5 380.7,-190.4 370.13,-191.05 372.84,-197.5"/>
</g>
<!-- 139858106980000+&#45;&gt;139858106980000 -->
<g id="edge1" class="edge">
<title>139858106980000+&#45;&gt;139858106980000</title>
<path fill="none" stroke="black" d="M200.94,-228.38C208.62,-228.38 217.34,-228.38 226.24,-228.38"/>
<polygon fill="black" stroke="black" points="226.03,-231.88 236.03,-228.38 226.03,-224.88 226.03,-231.88"/>
</g>
<!-- 139858106774256 -->
<g id="node5" class="node">
<title>139858106774256</title>
<polygon fill="none" stroke="black" points="236.5,-95.5 236.5,-171.25 342.5,-171.25 342.5,-95.5 236.5,-95.5"/>
<text xml:space="preserve" text-anchor="middle" x="289.5" y="-153.95" font-family="Times,serif" font-size="14.00">e</text>
<polyline fill="none" stroke="black" points="236.5,-146 342.5,-146"/>
<text xml:space="preserve" text-anchor="middle" x="289.5" y="-128.7" font-family="Times,serif" font-size="14.00">data &#45;6.0000</text>
<polyline fill="none" stroke="black" points="236.5,-120.75 342.5,-120.75"/>
<text xml:space="preserve" text-anchor="middle" x="289.5" y="-103.45" font-family="Times,serif" font-size="14.00">grad 3.0000</text>
</g>
<!-- 139858106774256&#45;&gt;139858106985440+ -->
<g id="edge12" class="edge">
<title>139858106774256&#45;&gt;139858106985440+</title>
<path fill="none" stroke="black" d="M342.83,-154.95C352.57,-158.96 362.49,-163.05 371.44,-166.75"/>
<polygon fill="black" stroke="black" points="369.83,-169.87 380.41,-170.44 372.5,-163.4 369.83,-169.87"/>
</g>
<!-- 139858106774256*&#45;&gt;139858106774256 -->
<g id="edge2" class="edge">
<title>139858106774256*&#45;&gt;139858106774256</title>
<path fill="none" stroke="black" d="M200.94,-133.38C208.18,-133.38 216.34,-133.38 224.71,-133.38"/>
<polygon fill="black" stroke="black" points="224.66,-136.88 234.66,-133.38 224.66,-129.88 224.66,-136.88"/>
</g>
<!-- 139858105976656 -->
<g id="node7" class="node">
<title>139858105976656</title>
<polygon fill="none" stroke="black" points="697.5,-94.5 697.5,-170.25 800.5,-170.25 800.5,-94.5 697.5,-94.5"/>
<text xml:space="preserve" text-anchor="middle" x="749" y="-152.95" font-family="Times,serif" font-size="14.00">i</text>
<polyline fill="none" stroke="black" points="697.5,-145 800.5,-145"/>
<text xml:space="preserve" text-anchor="middle" x="749" y="-127.7" font-family="Times,serif" font-size="14.00">data 6.0000</text>
<polyline fill="none" stroke="black" points="697.5,-119.75 800.5,-119.75"/>
<text xml:space="preserve" text-anchor="middle" x="749" y="-102.45" font-family="Times,serif" font-size="14.00">grad 1.0000</text>
</g>
<!-- 139858105976656* -->
<g id="node8" class="node">
<title>139858105976656*</title>
<ellipse fill="none" stroke="black" cx="634.5" cy="-132.38" rx="27" ry="18"/>
<text xml:space="preserve" text-anchor="middle" x="634.5" y="-127.7" font-family="Times,serif" font-size="14.00">*</text>
</g>
<!-- 139858105976656*&#45;&gt;139858105976656 -->
<g id="edge3" class="edge">
<title>139858105976656*&#45;&gt;139858105976656</title>
<path fill="none" stroke="black" d="M661.88,-132.38C669.11,-132.38 677.27,-132.38 685.61,-132.38"/>
<polygon fill="black" stroke="black" points="685.52,-135.88 695.52,-132.38 685.52,-128.88 685.52,-135.88"/>
</g>
<!-- 139858107134816 -->
<g id="node9" class="node">
<title>139858107134816</title>
<polygon fill="none" stroke="black" points="468.5,-47.5 468.5,-123.25 571.5,-123.25 571.5,-47.5 468.5,-47.5"/>
<text xml:space="preserve" text-anchor="middle" x="520" y="-105.95" font-family="Times,serif" font-size="14.00">h</text>
<polyline fill="none" stroke="black" points="468.5,-98 571.5,-98"/>
<text xml:space="preserve" text-anchor="middle" x="520" y="-80.7" font-family="Times,serif" font-size="14.00">data 3.0000</text>
<polyline fill="none" stroke="black" points="468.5,-72.75 571.5,-72.75"/>
<text xml:space="preserve" text-anchor="middle" x="520" y="-55.45" font-family="Times,serif" font-size="14.00">grad 2.0000</text>
</g>
<!-- 139858107134816&#45;&gt;139858105976656* -->
<g id="edge7" class="edge">
<title>139858107134816&#45;&gt;139858105976656*</title>
<path fill="none" stroke="black" d="M571.98,-106.67C581.74,-110.75 591.71,-114.91 600.7,-118.67"/>
<polygon fill="black" stroke="black" points="599.13,-121.81 609.71,-122.44 601.83,-115.35 599.13,-121.81"/>
</g>
<!-- 139858106744208 -->
<g id="node10" class="node">
<title>139858106744208</title>
<polygon fill="none" stroke="black" points="0,-190.5 0,-266.25 110.5,-266.25 110.5,-190.5 0,-190.5"/>
<text xml:space="preserve" text-anchor="middle" x="55.25" y="-248.95" font-family="Times,serif" font-size="14.00">c</text>
<polyline fill="none" stroke="black" points="0,-241 110.5,-241"/>
<text xml:space="preserve" text-anchor="middle" x="55.25" y="-223.7" font-family="Times,serif" font-size="14.00">data 10.0000</text>
<polyline fill="none" stroke="black" points="0,-215.75 110.5,-215.75"/>
<text xml:space="preserve" text-anchor="middle" x="55.25" y="-198.45" font-family="Times,serif" font-size="14.00">grad 3.0000</text>
</g>
<!-- 139858106744208&#45;&gt;139858106980000+ -->
<g id="edge11" class="edge">
<title>139858106744208&#45;&gt;139858106980000+</title>
<path fill="none" stroke="black" d="M110.97,-228.38C119.01,-228.38 127.14,-228.38 134.73,-228.38"/>
<polygon fill="black" stroke="black" points="134.63,-231.88 144.63,-228.38 134.63,-224.88 134.63,-231.88"/>
</g>
<!-- 139858107114432 -->
<g id="node11" class="node">
<title>139858107114432</title>
<polygon fill="none" stroke="black" points="1.5,-0.5 1.5,-76.25 109,-76.25 109,-0.5 1.5,-0.5"/>
<text xml:space="preserve" text-anchor="middle" x="55.25" y="-58.95" font-family="Times,serif" font-size="14.00">a</text>
<polyline fill="none" stroke="black" points="1.5,-51 109,-51"/>
<text xml:space="preserve" text-anchor="middle" x="55.25" y="-33.7" font-family="Times,serif" font-size="14.00">data 2.0000</text>
<polyline fill="none" stroke="black" points="1.5,-25.75 109,-25.75"/>
<text xml:space="preserve" text-anchor="middle" x="55.25" y="-8.45" font-family="Times,serif" font-size="14.00">grad &#45;9.0000</text>
</g>
<!-- 139858107114432&#45;&gt;139858106774256* -->
<g id="edge10" class="edge">
<title>139858107114432&#45;&gt;139858106774256*</title>
<path fill="none" stroke="black" d="M103.2,-76.74C118.11,-88.92 134.03,-101.94 146.86,-112.42"/>
<polygon fill="black" stroke="black" points="144.45,-114.98 154.41,-118.59 148.88,-109.56 144.45,-114.98"/>
</g>
<!-- 139858106985440 -->
<g id="node12" class="node">
<title>139858106985440</title>
<polygon fill="none" stroke="black" points="468.5,-142.5 468.5,-218.25 571.5,-218.25 571.5,-142.5 468.5,-142.5"/>
<text xml:space="preserve" text-anchor="middle" x="520" y="-200.95" font-family="Times,serif" font-size="14.00">g</text>
<polyline fill="none" stroke="black" points="468.5,-193 571.5,-193"/>
<text xml:space="preserve" text-anchor="middle" x="520" y="-175.7" font-family="Times,serif" font-size="14.00">data 2.0000</text>
<polyline fill="none" stroke="black" points="468.5,-167.75 571.5,-167.75"/>
<text xml:space="preserve" text-anchor="middle" x="520" y="-150.45" font-family="Times,serif" font-size="14.00">grad 3.0000</text>
</g>
<!-- 139858106985440&#45;&gt;139858105976656* -->
<g id="edge6" class="edge">
<title>139858106985440&#45;&gt;139858105976656*</title>
<path fill="none" stroke="black" d="M571.98,-158.62C581.74,-154.46 591.71,-150.21 600.7,-146.37"/>
<polygon fill="black" stroke="black" points="601.89,-149.67 609.71,-142.52 599.14,-143.23 601.89,-149.67"/>
</g>
<!-- 139858106985440+&#45;&gt;139858106985440 -->
<g id="edge4" class="edge">
<title>139858106985440+&#45;&gt;139858106985440</title>
<path fill="none" stroke="black" d="M432.88,-180.38C440.11,-180.38 448.27,-180.38 456.61,-180.38"/>
<polygon fill="black" stroke="black" points="456.52,-183.88 466.52,-180.38 456.52,-176.88 456.52,-183.88"/>
</g>
</g>
</svg>
