<?xml version="1.0" encoding="UTF-8" standalone="no"?>
<!DOCTYPE svg PUBLIC "-//W3C//DTD SVG 1.1//EN"
 "http://www.w3.org/Graphics/SVG/1.1/DTD/svg11.dtd">
<!-- Generated by graphviz version 14.1.5 (0)
 -->
<!-- Pages: 1 -->
<svg width="1051pt" height="370pt"
 viewBox="0.00 0.00 1051.00 370.00" xmlns="http://www.w3.org/2000/svg" xmlns:xlink="http://www.w3.org/1999/xlink">
<g id="graph0" class="graph" transform="scale(1 1) rotate(0) translate(4 365.75)">
<polygon fill="white" stroke="none" points="-4,4 -4,-365.75 1047.19,-365.75 1047.19,4 -4,4"/>
<!-- 139897047085616 -->
<g id="node1" class="node">
<title>139897047085616</title>
<polygon fill="none" stroke="black" points="468.5,-237.5 468.5,-313.25 571.5,-313.25 571.5,-237.5 468.5,-237.5"/>
<text xml:space="preserve" text-anchor="middle" x="520" y="-295.95" font-family="Times,serif" font-size="14.00">h</text>
<polyline fill="none" stroke="black" points="468.5,-288 571.5,-288"/>
<text xml:space="preserve" text-anchor="middle" x="520" y="-270.7" font-family="Times,serif" font-size="14.00">data 3.0000</text>
<polyline fill="none" stroke="black" points="468.5,-262.75 571.5,-262.75"/>
<text xml:space="preserve" text-anchor="middle" x="520" y="-245.45" font-family="Times,serif" font-size="14.00">grad 0.0000</text>
</g>
<!-- 139897045911376* -->
<g id="node9" class="node">
<title>139897045911376*</title>
<ellipse fill="none" stroke="black" cx="634.5" cy="-227.38" rx="27" ry="18"/>
<text xml:space="preserve" text-anchor="middle" x="634.5" y="-222.7" font-family="Times,serif" font-size="14.00">*</text>
</g>
<!-- 139897047085616&#45;&gt;139897045911376* -->
<g id="edge7" class="edge">
<title>139897047085616&#45;&gt;139897045911376*</title>
<path fill="none" stroke="black" d="M571.98,-253.62C581.74,-249.46 591.71,-245.21 600.7,-241.37"/>
<polygon fill="black" stroke="black" points="601.89,-244.67 609.71,-237.52 599.14,-238.23 601.89,-244.67"/>
</g>
<!-- 139897046089808 -->
<g id="node2" class="node">
<title>139897046089808</title>
<polygon fill="none" stroke="black" points="2.25,-285.5 2.25,-361.25 108.25,-361.25 108.25,-285.5 2.25,-285.5"/>
<text xml:space="preserve" text-anchor="middle" x="55.25" y="-343.95" font-family="Times,serif" font-size="14.00">b</text>
<polyline fill="none" stroke="black" points="2.25,-336 108.25,-336"/>
<text xml:space="preserve" text-anchor="middle" x="55.25" y="-318.7" font-family="Times,serif" font-size="14.00">data &#45;3.0000</text>
<polyline fill="none" stroke="black" points="2.25,-310.75 108.25,-310.75"/>
<text xml:space="preserve" text-anchor="middle" x="55.25" y="-293.45" font-family="Times,serif" font-size="14.00">grad 0.0001</text>
</g>
<!-- 139897046692592* -->
<g id="node6" class="node">
<title>139897046692592*</title>
<ellipse fill="none" stroke="black" cx="173.5" cy="-228.38" rx="27" ry="18"/>
<text xml:space="preserve" text-anchor="middle" x="173.5" y="-223.7" font-family="Times,serif" font-size="14.00">*</text>
</g>
<!-- 139897046089808&#45;&gt;139897046692592* -->
<g id="edge6" class="edge">
<title>139897046089808&#45;&gt;139897046692592*</title>
<path fill="none" stroke="black" d="M103.2,-285.01C118.11,-272.83 134.03,-259.81 146.86,-249.33"/>
<polygon fill="black" stroke="black" points="148.88,-252.19 154.41,-243.16 144.45,-246.77 148.88,-252.19"/>
</g>
<!-- 139897046919888 -->
<g id="node3" class="node">
<title>139897046919888</title>
<polygon fill="none" stroke="black" points="468.5,-142.5 468.5,-218.25 571.5,-218.25 571.5,-142.5 468.5,-142.5"/>
<text xml:space="preserve" text-anchor="middle" x="520" y="-200.95" font-family="Times,serif" font-size="14.00">g</text>
<polyline fill="none" stroke="black" points="468.5,-193 571.5,-193"/>
<text xml:space="preserve" text-anchor="middle" x="520" y="-175.7" font-family="Times,serif" font-size="14.00">data 2.0000</text>
<polyline fill="none" stroke="black" points="468.5,-167.75 571.5,-167.75"/>
<text xml:space="preserve" text-anchor="middle" x="520" y="-150.45" font-family="Times,serif" font-size="14.00">grad 0.0001</text>
</g>
<!-- 139897046919888&#45;&gt;139897045911376* -->
<g id="edge13" class="edge">
<title>139897046919888&#45;&gt;139897045911376*</title>
<path fill="none" stroke="black" d="M571.98,-201.67C581.74,-205.75 591.71,-209.91 600.7,-213.67"/>
<polygon fill="black" stroke="black" points="599.13,-216.81 609.71,-217.44 601.83,-210.35 599.13,-216.81"/>
</g>
<!-- 139897046919888+ -->
<g id="node4" class="node">
<title>139897046919888+</title>
<ellipse fill="none" stroke="black" cx="405.5" cy="-180.38" rx="27" ry="18"/>
<text xml:space="preserve" text-anchor="middle" x="405.5" y="-175.7" font-family="Times,serif" font-size="14.00">+</text>
</g>
<!-- 139897046919888+&#45;&gt;139897046919888 -->
<g id="edge1" class="edge">
<title>139897046919888+&#45;&gt;139897046919888</title>
<path fill="none" stroke="black" d="M432.88,-180.38C440.11,-180.38 448.27,-180.38 456.61,-180.38"/>
<polygon fill="black" stroke="black" points="456.52,-183.88 466.52,-180.38 456.52,-176.88 456.52,-183.88"/>
</g>
<!-- 139897046692592 -->
<g id="node5" class="node">
<title>139897046692592</title>
<polygon fill="none" stroke="black" points="236.5,-190.5 236.5,-266.25 342.5,-266.25 342.5,-190.5 236.5,-190.5"/>
<text xml:space="preserve" text-anchor="middle" x="289.5" y="-248.95" font-family="Times,serif" font-size="14.00">e</text>
<polyline fill="none" stroke="black" points="236.5,-241 342.5,-241"/>
<text xml:space="preserve" text-anchor="middle" x="289.5" y="-223.7" font-family="Times,serif" font-size="14.00">data &#45;6.0000</text>
<polyline fill="none" stroke="black" points="236.5,-215.75 342.5,-215.75"/>
<text xml:space="preserve" text-anchor="middle" x="289.5" y="-198.45" font-family="Times,serif" font-size="14.00">grad 0.0001</text>
</g>
<!-- 139897046692592&#45;&gt;139897046919888+ -->
<g id="edge11" class="edge">
<title>139897046692592&#45;&gt;139897046919888+</title>
<path fill="none" stroke="black" d="M342.83,-206.34C352.65,-202.21 362.66,-197.99 371.67,-194.2"/>
<polygon fill="black" stroke="black" points="372.85,-197.5 380.71,-190.39 370.13,-191.05 372.85,-197.5"/>
</g>
<!-- 139897046692592*&#45;&gt;139897046692592 -->
<g id="edge2" class="edge">
<title>139897046692592*&#45;&gt;139897046692592</title>
<path fill="none" stroke="black" d="M200.94,-228.38C208.18,-228.38 216.34,-228.38 224.71,-228.38"/>
<polygon fill="black" stroke="black" points="224.66,-231.88 234.66,-228.38 224.66,-224.88 224.66,-231.88"/>
</g>
<!-- 139897047085312 -->
<g id="node7" class="node">
<title>139897047085312</title>
<polygon fill="none" stroke="black" points="2.25,-95.5 2.25,-171.25 108.25,-171.25 108.25,-95.5 2.25,-95.5"/>
<text xml:space="preserve" text-anchor="middle" x="55.25" y="-153.95" font-family="Times,serif" font-size="14.00">f</text>
<polyline fill="none" stroke="black" points="2.25,-146 108.25,-146"/>
<text xml:space="preserve" text-anchor="middle" x="55.25" y="-128.7" font-family="Times,serif" font-size="14.00">data &#45;2.0000</text>
<polyline fill="none" stroke="black" points="2.25,-120.75 108.25,-120.75"/>
<text xml:space="preserve" text-anchor="middle" x="55.25" y="-103.45" font-family="Times,serif" font-size="14.00">grad 0.0001</text>
</g>
<!-- 139897046914448+ -->
<g id="node13" class="node">
<title>139897046914448+</title>
<ellipse fill="none" stroke="black" cx="173.5" cy="-133.38" rx="27" ry="18"/>
<text xml:space="preserve" text-anchor="middle" x="173.5" y="-128.7" font-family="Times,serif" font-size="14.00">+</text>
</g>
<!-- 139897047085312&#45;&gt;139897046914448+ -->
<g id="edge14" class="edge">
<title>139897047085312&#45;&gt;139897046914448+</title>
<path fill="none" stroke="black" d="M108.59,-133.38C117.44,-133.38 126.47,-133.38 134.85,-133.38"/>
<polygon fill="black" stroke="black" points="134.66,-136.88 144.66,-133.38 134.66,-129.88 134.66,-136.88"/>
</g>
<!-- 139897045911376 -->
<g id="node8" class="node">
<title>139897045911376</title>
<polygon fill="none" stroke="black" points="697.5,-189.5 697.5,-265.25 800.5,-265.25 800.5,-189.5 697.5,-189.5"/>
<text xml:space="preserve" text-anchor="middle" x="749" y="-247.95" font-family="Times,serif" font-size="14.00">i</text>
<polyline fill="none" stroke="black" points="697.5,-240 800.5,-240"/>
<text xml:space="preserve" text-anchor="middle" x="749" y="-222.7" font-family="Times,serif" font-size="14.00">data 6.0000</text>
<polyline fill="none" stroke="black" points="697.5,-214.75 800.5,-214.75"/>
<text xml:space="preserve" text-anchor="middle" x="749" y="-197.45" font-family="Times,serif" font-size="14.00">grad 0.0000</text>
</g>
<!-- 139897045912400tanh -->
<g id="node11" class="node">
<title>139897045912400tanh</title>
<ellipse fill="none" stroke="black" cx="870.35" cy="-227.38" rx="33.85" ry="18"/>
<text xml:space="preserve" text-anchor="middle" x="870.35" y="-222.7" font-family="Times,serif" font-size="14.00">tanh</text>
</g>
<!-- 139897045911376&#45;&gt;139897045912400tanh -->
<g id="edge9" class="edge">
<title>139897045911376&#45;&gt;139897045912400tanh</title>
<path fill="none" stroke="black" d="M800.96,-227.38C808.87,-227.38 816.99,-227.38 824.74,-227.38"/>
<polygon fill="black" stroke="black" points="824.65,-230.88 834.65,-227.38 824.65,-223.88 824.65,-230.88"/>
</g>
<!-- 139897045911376*&#45;&gt;139897045911376 -->
<g id="edge3" class="edge">
<title>139897045911376*&#45;&gt;139897045911376</title>
<path fill="none" stroke="black" d="M661.88,-227.38C669.11,-227.38 677.27,-227.38 685.61,-227.38"/>
<polygon fill="black" stroke="black" points="685.52,-230.88 695.52,-227.38 685.52,-223.88 685.52,-230.88"/>
</g>
<!-- 139897045912400 -->
<g id="node10" class="node">
<title>139897045912400</title>
<polygon fill="none" stroke="black" points="940.19,-202.12 940.19,-252.62 1043.19,-252.62 1043.19,-202.12 940.19,-202.12"/>
<text xml:space="preserve" text-anchor="middle" x="991.69" y="-235.32" font-family="Times,serif" font-size="14.00">data 1.0000</text>
<polyline fill="none" stroke="black" points="940.19,-227.38 1043.19,-227.38"/>
<text xml:space="preserve" text-anchor="middle" x="991.69" y="-210.07" font-family="Times,serif" font-size="14.00">grad 1.0000</text>
</g>
<!-- 139897045912400tanh&#45;&gt;139897045912400 -->
<g id="edge4" class="edge">
<title>139897045912400tanh&#45;&gt;139897045912400</title>
<path fill="none" stroke="black" d="M904.59,-227.38C912.08,-227.38 920.27,-227.38 928.52,-227.38"/>
<polygon fill="black" stroke="black" points="928.24,-230.88 938.24,-227.38 928.24,-223.88 928.24,-230.88"/>
</g>
<!-- 139897046914448 -->
<g id="node12" class="node">
<title>139897046914448</title>
<polygon fill="none" stroke="black" points="238,-95.5 238,-171.25 341,-171.25 341,-95.5 238,-95.5"/>
<text xml:space="preserve" text-anchor="middle" x="289.5" y="-153.95" font-family="Times,serif" font-size="14.00">d</text>
<polyline fill="none" stroke="black" points="238,-146 341,-146"/>
<text xml:space="preserve" text-anchor="middle" x="289.5" y="-128.7" font-family="Times,serif" font-size="14.00">data 8.0000</text>
<polyline fill="none" stroke="black" points="238,-120.75 341,-120.75"/>
<text xml:space="preserve" text-anchor="middle" x="289.5" y="-103.45" font-family="Times,serif" font-size="14.00">grad 0.0001</text>
</g>
<!-- 139897046914448&#45;&gt;139897046919888+ -->
<g id="edge8" class="edge">
<title>139897046914448&#45;&gt;139897046919888+</title>
<path fill="none" stroke="black" d="M341.5,-154.4C351.64,-158.58 362.04,-162.87 371.39,-166.72"/>
<polygon fill="black" stroke="black" points="369.83,-169.87 380.41,-170.44 372.49,-163.39 369.83,-169.87"/>
</g>
<!-- 139897046914448+&#45;&gt;139897046914448 -->
<g id="edge5" class="edge">
<title>139897046914448+&#45;&gt;139897046914448</title>
<path fill="none" stroke="black" d="M200.94,-133.38C208.62,-133.38 217.34,-133.38 226.24,-133.38"/>
<polygon fill="black" stroke="black" points="226.03,-136.88 236.03,-133.38 226.03,-129.88 226.03,-136.88"/>
</g>
<!-- 139897047049152 -->
<g id="node14" class="node">
<title>139897047049152</title>
<polygon fill="none" stroke="black" points="1.5,-190.5 1.5,-266.25 109,-266.25 109,-190.5 1.5,-190.5"/>
<text xml:space="preserve" text-anchor="middle" x="55.25" y="-248.95" font-family="Times,serif" font-size="14.00">a</text>
<polyline fill="none" stroke="black" points="1.5,-241 109,-241"/>
<text xml:space="preserve" text-anchor="middle" x="55.25" y="-223.7" font-family="Times,serif" font-size="14.00">data 2.0000</text>
<polyline fill="none" stroke="black" points="1.5,-215.75 109,-215.75"/>
<text xml:space="preserve" text-anchor="middle" x="55.25" y="-198.45" font-family="Times,serif" font-size="14.00">grad &#45;0.0002</text>
</g>
<!-- 139897047049152&#45;&gt;139897046692592* -->
<g id="edge12" class="edge">
<title>139897047049152&#45;&gt;139897046692592*</title>
<path fill="none" stroke="black" d="M109.27,-228.38C117.88,-228.38 126.64,-228.38 134.79,-228.38"/>
<polygon fill="black" stroke="black" points="134.69,-231.88 144.69,-228.38 134.69,-224.88 134.69,-231.88"/>
</g>
<!-- 139897046090128 -->
<g id="node15" class="node">
<title>139897046090128</title>
<polygon fill="none" stroke="black" points="0,-0.5 0,-76.25 110.5,-76.25 110.5,-0.5 0,-0.5"/>
<text xml:space="preserve" text-anchor="middle" x="55.25" y="-58.95" font-family="Times,serif" font-size="14.00">c</text>
<polyline fill="none" stroke="black" points="0,-51 110.5,-51"/>
<text xml:space="preserve" text-anchor="middle" x="55.25" y="-33.7" font-family="Times,serif" font-size="14.00">data 10.0000</text>
<polyline fill="none" stroke="black" points="0,-25.75 110.5,-25.75"/>
<text xml:space="preserve" text-anchor="middle" x="55.25" y="-8.45" font-family="Times,serif" font-size="14.00">grad 0.0001</text>
</g>
<!-- 139897046090128&#45;&gt;139897046914448+ -->
<g id="edge10" class="edge">
<title>139897046090128&#45;&gt;139897046914448+</title>
<path fill="none" stroke="black" d="M103.2,-76.74C118.11,-88.92 134.03,-101.94 146.86,-112.42"/>
<polygon fill="black" stroke="black" points="144.45,-114.98 154.41,-118.59 148.88,-109.56 144.45,-114.98"/>
</g>
</g>
</svg>
